<?xml version="1.0" standalone="no"?>
<!DOCTYPE svg PUBLIC "-//W3C//DTD SVG 20010904//EN"
 "http://www.w3.org/TR/2001/REC-SVG-20010904/DTD/svg10.dtd">
<svg version="1.0" xmlns="http://www.w3.org/2000/svg"
 width="1024.000000pt" height="1024.000000pt" viewBox="0 0 1024.000000 1024.000000"
 preserveAspectRatio="xMidYMid meet">
<metadata>
Created by potrace 1.16, written by Peter Selinger 2001-2019
</metadata>
<g transform="translate(0.000000,1024.000000) scale(0.100000,-0.100000)"
fill="#000000" stroke="none">
<path d="M4679 6459 c-8 -16 -9 -65 -4 -174 l7 -151 -36 -28 -36 -27 0 -109
c0 -127 12 -113 -139 -167 -53 -19 -100 -38 -106 -44 -7 -7 -12 -506 -15
-1440 l-5 -1431 -28 -24 c-34 -29 -76 -31 -108 -5 l-24 19 -5 1144 -5 1143
-22 3 c-23 3 -60 -15 -461 -230 -172 -93 -226 -127 -237 -149 -13 -24 -15
-153 -15 -901 0 -825 -1 -875 -19 -913 -20 -45 -69 -91 -118 -112 -20 -8 -72
-13 -137 -13 -125 0 -152 -9 -171 -53 -16 -39 -10 -73 18 -104 l20 -23 2094 0
2094 0 24 25 c36 35 34 88 -4 126 -29 29 -31 29 -143 29 -126 0 -171 14 -220
66 -54 59 -53 37 -55 774 -2 650 -3 686 -21 709 -12 17 -53 39 -118 63 -54 21
-107 48 -116 59 -15 18 -18 42 -18 156 0 141 -6 168 -43 183 -12 5 -73 31
-135 58 l-113 50 -67 -15 c-37 -9 -82 -21 -99 -29 l-33 -13 0 -96 c0 -53 -5
-105 -10 -115 -7 -13 -48 -31 -128 -56 -64 -20 -126 -45 -137 -55 -20 -19 -20
-36 -25 -865 l-5 -846 -25 -20 c-32 -26 -97 -19 -122 12 -17 21 -18 102 -18
1441 l0 1418 -22 25 c-15 15 -58 35 -123 56 -55 18 -106 39 -112 48 -9 10 -13
50 -13 112 0 80 -3 100 -17 112 -10 8 -89 39 -176 68 l-159 53 -52 -16 c-29
-10 -56 -17 -60 -17 -4 0 -6 69 -4 153 l3 152 -82 3 c-75 3 -83 1 -94 -19z
m146 -919 c0 -81 -1 -85 -25 -96 -14 -7 -38 -14 -55 -16 l-30 -3 0 89 0 89 35
13 c69 25 75 20 75 -76z m386 69 c16 -8 19 -22 19 -94 0 -46 -5 -87 -10 -90
-6 -4 -33 1 -60 10 l-50 17 0 90 0 91 41 -7 c23 -4 50 -11 60 -17z m-593 -121
c3 -98 -1 -105 -72 -114 l-47 -7 3 94 3 94 45 12 c25 6 50 10 55 9 6 -2 11
-41 13 -88z m780 72 l42 -11 0 -94 c0 -105 2 -103 -70 -81 l-45 13 -3 83 c-3
91 1 112 20 105 7 -2 32 -9 56 -15z m-175 -260 c4 0 7 -43 7 -95 0 -106 2
-105 -73 -79 l-47 16 0 87 c0 48 3 90 6 94 3 3 27 -1 52 -9 26 -7 50 -14 55
-14z m-393 -66 l0 -85 -35 -15 c-19 -8 -45 -15 -57 -17 -22 -2 -23 1 -26 86
l-3 88 33 14 c18 8 45 14 61 15 l27 0 0 -86z m-212 -57 l3 -87 -28 -11 c-15
-6 -43 -13 -60 -16 l-33 -6 0 92 c0 50 1 91 3 91 1 0 20 7 42 15 67 24 70 21
73 -78z m805 62 c14 -8 17 -24 17 -99 0 -100 2 -98 -70 -76 l-45 13 -3 83 c-4
109 -3 111 45 98 21 -5 46 -14 56 -19z m-598 -319 l0 -84 -45 -17 c-25 -9 -50
-14 -57 -12 -9 4 -13 31 -13 90 l0 84 33 14 c17 8 43 14 57 12 25 -2 25 -4 25
-87z m386 69 c16 -8 19 -22 19 -94 0 -46 -5 -87 -10 -90 -6 -4 -33 1 -60 10
l-50 17 0 90 0 91 41 -7 c23 -4 50 -11 60 -17z m-591 -118 c0 -87 0 -89 -28
-100 -15 -6 -41 -13 -57 -14 l-30 -2 0 90 0 90 35 12 c19 7 45 12 58 12 21 1
22 -2 22 -88z m788 63 l32 -13 0 -90 c0 -102 1 -100 -73 -75 l-47 16 0 94 0
94 28 -6 c15 -4 42 -13 60 -20z m-578 -320 l0 -85 -35 -15 c-19 -8 -45 -15
-57 -17 -22 -2 -23 1 -23 88 l0 90 35 12 c19 7 45 12 58 12 21 1 22 -2 22 -85z
m373 67 c26 -10 27 -12 27 -95 0 -47 -5 -88 -10 -91 -6 -4 -33 1 -60 10 l-50
17 0 90 0 91 33 -6 c17 -3 44 -10 60 -16z m-583 -120 l0 -89 -40 -16 c-77 -31
-80 -28 -80 74 l0 91 33 14 c17 8 44 14 60 15 l27 0 0 -89z m787 64 l33 -14 0
-90 c0 -50 -4 -91 -8 -91 -5 0 -32 7 -60 15 l-52 16 0 95 0 96 27 -7 c15 -3
42 -13 60 -20z m-1397 -79 l0 -95 -55 -6 c-83 -11 -85 -9 -85 88 0 51 5 88 12
95 7 7 38 12 70 12 l58 0 0 -94z m-261 70 c8 -9 11 -45 9 -98 l-3 -83 -60 -6
c-33 -4 -63 -5 -67 -2 -5 2 -8 44 -8 93 0 100 -5 95 106 109 6 0 17 -5 23 -13z
m1076 -316 c0 -81 -1 -85 -25 -97 -14 -6 -38 -13 -55 -15 l-30 -3 0 90 0 90
35 12 c70 24 75 19 75 -77z m386 69 c16 -8 19 -22 19 -94 0 -46 -5 -87 -10
-90 -6 -4 -33 1 -60 10 l-50 17 0 90 0 91 41 -7 c23 -4 50 -11 60 -17z m-591
-118 l0 -90 -54 -15 c-30 -9 -57 -16 -60 -16 -4 0 -5 42 -4 93 l3 92 35 12
c19 7 45 12 58 12 21 1 22 -2 22 -88z m787 64 l33 -14 0 -85 c0 -47 -4 -87 -9
-90 -5 -3 -32 1 -60 10 l-51 15 0 95 0 96 27 -7 c15 -3 42 -13 60 -20z m668
-70 l0 -90 -35 -11 c-20 -7 -49 -14 -65 -15 l-30 -4 -3 92 -3 92 43 11 c24 6
48 13 53 15 34 13 40 0 40 -90z m403 63 c8 -7 12 -40 12 -99 0 -100 -1 -101
-70 -73 l-40 16 0 87 c0 48 3 90 6 93 7 8 75 -11 92 -24z m-2473 -83 l0 -90
-55 -7 c-30 -4 -61 -5 -67 -3 -9 3 -13 31 -13 94 0 62 4 91 13 95 6 2 37 4 67
3 l55 -2 0 -90z m-261 79 c13 -5 16 -23 16 -90 0 -95 2 -92 -80 -96 l-55 -3 0
90 0 90 40 6 c61 9 62 9 79 3z m2914 -50 l32 -13 0 -90 c0 -102 -4 -106 -75
-77 l-35 15 0 96 c0 108 -5 103 78 69z m-1435 -203 c4 -4 7 -46 5 -92 l-3 -84
-30 2 c-16 1 -42 8 -57 14 -28 11 -28 13 -28 99 0 47 2 89 6 92 6 7 95 -19
107 -31z m-395 -58 c-3 -82 -5 -89 -28 -100 -14 -6 -38 -13 -55 -15 l-30 -3 0
90 0 90 35 12 c19 7 45 12 58 12 22 1 23 -1 20 -86z m-208 -53 l0 -89 -52 -16
c-28 -8 -55 -15 -60 -15 -5 0 -7 41 -6 92 l3 91 35 13 c19 7 45 13 58 13 21 1
22 -2 22 -89z m813 60 c4 0 7 -43 7 -95 0 -106 2 -105 -73 -79 l-47 16 0 87
c0 48 3 90 6 94 3 3 27 -1 52 -9 26 -7 50 -14 55 -14z m645 -73 c3 -87 3 -87
-24 -98 -15 -5 -47 -13 -71 -16 l-43 -6 0 91 0 91 48 15 c84 26 87 24 90 -77z
m365 77 l47 -16 0 -95 0 -95 -27 7 c-75 18 -78 22 -81 123 -1 50 1 92 6 92 5
0 29 -7 55 -16z m-2433 -94 c0 -100 0 -100 -86 -100 l-55 0 3 93 3 92 55 5
c30 3 61 4 68 2 8 -3 12 -30 12 -92z m-255 -15 l0 -90 -60 -6 c-33 -4 -63 -5
-67 -2 -14 8 -9 181 5 187 6 2 37 4 67 3 l55 -2 0 -90z m2905 42 c24 -12 25
-17 28 -106 l3 -94 -28 6 c-83 17 -83 17 -83 123 l0 96 28 -7 c15 -3 38 -12
52 -18z m-1832 -254 c3 -77 1 -83 -22 -98 -13 -9 -40 -19 -60 -22 l-37 -6 3
94 3 94 35 12 c69 24 75 18 78 -74z m383 66 c16 -8 19 -22 19 -101 l0 -91 -41
7 c-77 12 -79 16 -79 118 l0 91 41 -7 c23 -4 50 -11 60 -17z m-591 -120 c0
-99 -3 -103 -81 -111 l-34 -3 -3 91 -3 91 53 15 c29 9 56 13 61 11 4 -2 7 -45
7 -94z m766 75 l54 -15 0 -96 0 -95 -36 7 c-85 16 -84 14 -84 120 0 52 3 95 6
95 3 0 30 -7 60 -16z m694 -94 l0 -89 -37 -10 c-21 -5 -53 -12 -71 -16 l-33
-7 3 94 3 93 35 12 c19 7 50 12 68 12 l32 1 0 -90z m392 69 c15 -8 18 -24 18
-105 l0 -94 -27 6 c-76 18 -78 21 -81 123 l-3 93 38 -7 c21 -4 46 -11 55 -16z
m-2467 -84 l0 -90 -55 -7 c-30 -4 -61 -5 -67 -3 -9 3 -13 31 -13 94 0 101 -1
100 85 98 l50 -2 0 -90z m-250 -20 l0 -90 -67 -3 -68 -3 0 90 c0 62 4 91 13
95 6 2 37 4 67 3 l55 -2 0 -90z m2893 50 l42 -17 0 -94 0 -94 -27 6 c-16 4
-40 13 -55 21 -28 13 -28 15 -28 109 0 73 3 95 13 91 6 -3 31 -13 55 -22z
m-573 -335 l0 -93 -58 -14 c-33 -7 -63 -10 -68 -7 -14 8 -11 171 4 181 15 10
99 31 112 28 6 -1 10 -41 10 -95z m398 69 c15 -9 17 -22 15 -102 -3 -90 -3
-92 -27 -89 -13 1 -36 8 -50 15 -25 12 -26 16 -29 106 l-3 93 38 -7 c21 -4 46
-11 56 -16z m-2468 -84 l0 -90 -50 -5 c-86 -9 -85 -10 -85 89 0 48 3 91 7 95
4 4 34 6 68 4 l60 -3 0 -90z m-256 71 c8 -9 11 -45 9 -98 l-3 -83 -68 -3 -68
-3 3 93 3 93 45 6 c25 3 50 7 56 7 6 1 17 -4 23 -12z m2909 -42 l32 -13 0 -95
c0 -53 -1 -96 -3 -96 -2 0 -27 7 -55 15 l-52 16 0 100 c0 112 -5 107 78 73z"/>
</g>
</svg>
